<?xml version="1.0" encoding="utf-8"?>
<!-- Generator: Adobe Illustrator 22.0.1, SVG Export Plug-In . SVG Version: 6.00 Build 0)  -->
<svg version="1.1" id="Layer_1" xmlns="http://www.w3.org/2000/svg" xmlns:xlink="http://www.w3.org/1999/xlink" x="0px" y="0px"
	 viewBox="0 0 103 29.2" style="enable-background:new 0 0 103 29.2;" xml:space="preserve">
<style type="text/css">
	.st0{clip-path:url(#SVGID_2_);}
	.st1{clip-path:url(#Vector_1_);}
	.st2{clip-path:url(#Vector_2_1_);}
	.st3{clip-path:url(#Vector_3_1_);}
	.st4{clip-path:url(#Vector_4_1_);}
	.st5{clip-path:url(#Vector_5_1_);}
	.st6{clip-path:url(#Vector_6_1_);}
</style>
<defs>
	<rect id="SVGID_1_" x="50.8" y="2.8" width="0.2" height="24"/>
</defs>
<defs>
	<path id="Vector" d="M34,12.2c0.2,0.3,0.6,0.5,1,0.3c0.3-0.2,0.5-0.7,0.3-1c-0.2-0.3-0.4-0.6-0.6-0.9c-0.2-0.3-0.6-0.5-1-0.3
		c-0.3,0.2-0.5,0.7-0.3,1C33.6,11.6,33.8,11.9,34,12.2z"/>
</defs>
<defs>
	<path id="Vector_2" d="M26.5,26.3C32,21.1,37,15.6,41.6,9.7c0.3-0.1,0.5-0.4,0.4-0.8c-0.9-4.3-4.7-7.3-9-7.1
		c-0.2,0-0.3,0.1-0.4,0.1c-0.1,0-0.2,0.1-0.2,0.2c-5,5.5-10.1,10.9-15.1,16.4c-0.1,0.1-0.2,0.3-0.2,0.4c0,0.1-0.1,0.2-0.1,0.3
		c-0.3,2.2-0.6,4.4-0.7,6.6c-0.3-0.5-0.5-1.1-0.9-1.6c-0.6-0.7-1.5-0.9-2.3-0.6c-0.7,0.3-0.9,1.3-1.6,1.5c-0.4,0.1-1-0.9-1.2-1.1
		c-0.3-0.4-0.6-0.7-1.1-0.9c-0.7-0.4-1.6-0.2-2.1,0.4c-0.2,0.3-0.4,0.7-0.5,1c-0.1,0.2-0.2,0.9-0.4,0.9c-0.3,0-0.7-0.4-1-0.5
		c-0.3-0.2-0.7-0.3-1-0.3c-0.4,0-0.8,0.1-1.1,0.4c-0.2,0.2-0.3,0.3-0.4,0.5c-0.3,0.4-0.2,0.2-0.1,0.7c-0.2-0.9-1.7-0.6-1.5,0.3
		c0.2,0.8,0.9,1.1,1.7,0.9c0.4-0.1,0.7-0.4,0.9-0.7C3.9,26.3,4,26,4.5,26.3c0.7,0.4,1.3,0.8,2.1,0.6C7.5,26.7,7.8,25.8,8,25
		c0.1-0.5,0.2-0.8,0.7-0.5c0.4,0.3,0.7,0.8,1,1.2c0.7,0.7,1.6,1.1,2.5,0.6c0.5-0.3,1.2-1.7,1.7-1.4c0.5,0.2,0.7,0.8,0.9,1.3
		c0.2,0.5,0.5,1,0.9,1.3c0.3,0.3,0.7,0.4,1,0.1c2.7,0.1,5.4,0,8.1-0.4c0.2,0.1,0.5,0.1,0.8-0.1c0.1-0.1,0.3-0.3,0.4-0.4
		C26.3,26.6,26.5,26.5,26.5,26.3z M21.9,26c-0.5-1.9-1.9-3.2-3.8-3.6c0.1-0.8,0.2-1.6,0.3-2.4c0.1,0,0.1-0.1,0.2-0.1
		c1-0.8,2.1,0.2,1.9,1.3c-0.1,0.6,0.6,0.9,1.1,0.7c1.2-0.5,2.4,0.5,2.1,1.8c-0.1,0.4,0.2,1,0.7,1c0.6,0,0.9,0.3,0.8,0.7
		c-0.1,0.1-0.2,0.2-0.3,0.2C23.9,25.8,22.9,26,21.9,26z M28.4,8.6c1.4,0,2.6,0.5,3.6,1.5c0.7,0.7,1.8-0.3,1.1-1
		c-1-0.9-2.2-1.5-3.5-1.8c0.3-0.3,0.6-0.6,0.9-1c0,0,0,0,0,0c3.1,0.6,5.8,3.1,6.6,6.1c0,0.1,0.1,0.2,0.1,0.3c-0.9,1-1.7,2-2.6,3
		c-1.1-3.2-3.6-5.6-6.9-6.5C28,9,28.2,8.8,28.4,8.6z M25.3,23.3c0-0.4-0.1-0.8-0.2-1.1c0.2,0.1,0.5,0.1,0.8-0.1
		c2.2-2.5,4.5-5,6.7-7.5c0.4,0.6,0.7,1.3,0.9,2c0,0.1,0.1,0.2,0.2,0.3c-2.3,2.5-4.7,5-7.1,7.4C26.2,23.8,25.8,23.5,25.3,23.3z
		 M26.7,10.4c0,0,0.1,0,0.1,0c0.7,0.1,1.4,0.3,2,0.6c-1.9,1.9-3.7,3.8-5.6,5.7c-0.7,0.7,0.3,1.8,1,1.1c2-2,4-4.1,5.9-6.1
		c0.6,0.4,1.1,0.9,1.5,1.4c-2.3,2.5-4.6,5.1-6.8,7.6c-0.1,0.2-0.2,0.3-0.2,0.5c-0.6-0.8-1.6-1.2-2.6-1.2c-0.2-1.2-1.3-2-2.4-2.1
		C22,15.6,24.3,13,26.7,10.4z M40.4,8.8c-0.7,0.9-1.3,1.7-2,2.5c-1.1-3.1-3.6-5.4-6.7-6.3c0.5-0.6,1.1-1.1,1.6-1.7
		C36.7,3.3,39.6,5.5,40.4,8.8z"/>
</defs>
<defs>
	<path id="Vector_3" d="M17.3,11.8c-2.5,1.4-4.4,3.8-5.2,6.6c-0.3,0.9,1.2,1.4,1.4,0.5c0.7-2.4,2.3-4.5,4.5-5.7
		C18.8,12.7,18.2,11.4,17.3,11.8z"/>
</defs>
<defs>
	<path id="Vector_4" d="M14,11.3c-1.2,0.9-2.1,2.1-2.7,3.6c-0.4,0.9,1,1.3,1.4,0.5c0.5-1.2,1.3-2.1,2.3-2.9
		C15.7,11.9,14.7,10.8,14,11.3z"/>
</defs>
<defs>
	<path id="Vector_5" d="M39.5,18.3c0.3-0.9-1.2-1.4-1.4-0.5c-0.8,3.2-3,5.9-6,7.3c-0.9,0.4-0.2,1.8,0.7,1.4
		C36,24.9,38.5,21.9,39.5,18.3z"/>
</defs>
<defs>
	<path id="Vector_6" d="M38.2,21.8c-1,1.8-2.3,3.2-3.9,4.4c-0.8,0.5,0.2,1.7,1,1.1c1.7-1.2,3.2-2.8,4.2-4.7
		C40,21.8,38.7,21,38.2,21.8z"/>
</defs>
<defs>
	<path id="EDIT" d="M63.5,22c-0.8,0-1.4-0.2-1.8-0.6c-0.4-0.4-0.7-1-0.7-1.7v-7.9c0-0.7,0.2-1.3,0.6-1.7c0.4-0.4,1-0.6,1.8-0.6H69
		c0.6,0,0.8,0.2,0.8,0.7c0,0.2-0.1,0.4-0.2,0.5c-0.1,0.1-0.3,0.2-0.6,0.2h-5.4c-0.3,0-0.5,0.1-0.7,0.3c-0.2,0.2-0.2,0.4-0.2,0.7v3.1
		h5c0.6,0,0.8,0.2,0.8,0.7c0,0.2-0.1,0.4-0.2,0.5c-0.1,0.1-0.3,0.2-0.6,0.2h-5v3.4c0,0.3,0.1,0.5,0.2,0.7c0.2,0.2,0.4,0.3,0.7,0.3
		h5.8c0.3,0,0.5,0.1,0.6,0.2c0.1,0.1,0.2,0.3,0.2,0.5c0,0.2-0.1,0.4-0.2,0.5C69.9,22,69.7,22,69.4,22H63.5z M75,22
		c-0.8,0-1.4-0.2-1.9-0.6c-0.4-0.4-0.6-1-0.6-1.7v-7.9c0-0.7,0.2-1.3,0.6-1.7c0.4-0.4,1-0.6,1.8-0.6h2.5c1.3,0,2.4,0.3,3.3,0.8
		c1,0.5,1.7,1.2,2.2,2.2s0.8,2.1,0.8,3.3s-0.3,2.4-0.8,3.3c-0.5,0.9-1.2,1.7-2.2,2.2c-0.9,0.5-2.1,0.8-3.4,0.8H75z M77.3,20.7
		c1.6,0,2.7-0.4,3.6-1.3c0.8-0.8,1.2-2.1,1.2-3.7s-0.4-2.8-1.2-3.7c-0.8-0.9-2-1.3-3.6-1.3h-2.2c-0.3,0-0.5,0.1-0.7,0.3
		c-0.2,0.2-0.2,0.4-0.2,0.7v7.9c0,0.3,0.1,0.5,0.2,0.7c0.2,0.2,0.4,0.3,0.7,0.3H77.3z M87.4,22.2c-0.3,0-0.5-0.1-0.6-0.2
		c-0.1-0.2-0.2-0.4-0.2-0.6V10.1c0-0.3,0.1-0.5,0.2-0.6c0.2-0.2,0.4-0.2,0.6-0.2c0.3,0,0.5,0.1,0.6,0.2c0.2,0.1,0.2,0.3,0.2,0.6
		v11.3c0,0.3-0.1,0.5-0.2,0.6C87.9,22.1,87.7,22.2,87.4,22.2z M96.4,22.2c-0.3,0-0.5-0.1-0.6-0.2c-0.1-0.2-0.2-0.4-0.2-0.6V10.8
		h-3.9c-0.3,0-0.5-0.1-0.6-0.2c-0.1-0.1-0.2-0.3-0.2-0.5c0-0.5,0.3-0.7,0.8-0.7h9.5c0.3,0,0.5,0.1,0.6,0.2c0.1,0.1,0.2,0.3,0.2,0.5
		c0,0.2-0.1,0.4-0.2,0.5c-0.1,0.1-0.3,0.2-0.6,0.2h-3.9v10.6c0,0.3-0.1,0.5-0.2,0.6C96.9,22.1,96.7,22.2,96.4,22.2z"/>
</defs>
<use xlink:href="#SVGID_1_"  style="overflow:visible;fill:#FCFCFC;"/>
<use xlink:href="#Vector"  style="overflow:visible;fill:#FAFFF5;"/>
<use xlink:href="#Vector_2"  style="overflow:visible;fill:#FAFFF5;"/>
<use xlink:href="#Vector_3"  style="overflow:visible;fill:#FAFFF5;"/>
<use xlink:href="#Vector_4"  style="overflow:visible;fill:#FAFFF5;"/>
<use xlink:href="#Vector_5"  style="overflow:visible;fill:#FAFFF5;"/>
<use xlink:href="#Vector_6"  style="overflow:visible;fill:#FAFFF5;"/>
<use xlink:href="#EDIT"  style="overflow:visible;fill:#FAFFF5;"/>
<clipPath id="SVGID_2_">
	<use xlink:href="#SVGID_1_"  style="overflow:visible;"/>
</clipPath>
<clipPath id="Vector_1_" class="st0">
	<use xlink:href="#Vector"  style="overflow:visible;"/>
</clipPath>
<clipPath id="Vector_2_1_" class="st1">
	<use xlink:href="#Vector_2"  style="overflow:visible;"/>
</clipPath>
<clipPath id="Vector_3_1_" class="st2">
	<use xlink:href="#Vector_3"  style="overflow:visible;"/>
</clipPath>
<clipPath id="Vector_4_1_" class="st3">
	<use xlink:href="#Vector_4"  style="overflow:visible;"/>
</clipPath>
<clipPath id="Vector_5_1_" class="st4">
	<use xlink:href="#Vector_5"  style="overflow:visible;"/>
</clipPath>
<clipPath id="Vector_6_1_" class="st5">
	<use xlink:href="#Vector_6"  style="overflow:visible;"/>
</clipPath>
<clipPath id="EDIT_1_" class="st6">
	<use xlink:href="#EDIT"  style="overflow:visible;"/>
</clipPath>
<use xlink:href="#SVGID_1_"  style="overflow:visible;fill:none;stroke:#FAFFF5;stroke-linecap:round;stroke-linejoin:round;stroke-miterlimit:10;"/>
</svg>
