<?xml version="1.0" encoding="utf-8"?>
<!-- Generator: Adobe Illustrator 22.0.1, SVG Export Plug-In . SVG Version: 6.00 Build 0)  -->
<svg version="1.1" id="Layer_1" xmlns="http://www.w3.org/2000/svg" xmlns:xlink="http://www.w3.org/1999/xlink" x="0px" y="0px"
	 viewBox="0 0 103 29.2" style="enable-background:new 0 0 103 29.2;" xml:space="preserve">
<style type="text/css">
	.st0{fill:#FCFCFC;}
	.st1{fill:#FAFFF5;}
	.st2{fill:#993333;}
	.st3{clip-path:url(#SVGID_7_);}
	.st4{clip-path:url(#SVGID_12_);}
	.st5{clip-path:url(#SVGID_13_);}
	.st6{clip-path:url(#SVGID_19_);}
	.st7{clip-path:url(#SVGID_20_);}
	.st8{clip-path:url(#SVGID_21_);}
	.st9{clip-path:url(#SVGID_28_);}
	.st10{clip-path:url(#SVGID_29_);}
	.st11{clip-path:url(#SVGID_30_);}
	.st12{clip-path:url(#SVGID_31_);}
	.st13{clip-path:url(#SVGID_39_);}
	.st14{clip-path:url(#SVGID_40_);}
	.st15{clip-path:url(#SVGID_41_);}
	.st16{clip-path:url(#SVGID_42_);}
	.st17{clip-path:url(#SVGID_43_);}
	.st18{clip-path:url(#SVGID_52_);}
	.st19{clip-path:url(#SVGID_53_);}
	.st20{clip-path:url(#SVGID_54_);}
	.st21{clip-path:url(#SVGID_55_);}
	.st22{clip-path:url(#SVGID_56_);}
	.st23{clip-path:url(#SVGID_57_);}
	.st24{fill:none;stroke:#993333;stroke-linecap:round;stroke-linejoin:round;stroke-miterlimit:10;}
</style>
<g>
	<rect id="SVGID_1_" x="50.8" y="2.8" class="st0" width="0.2" height="24"/>
</g>
<g>
	<path id="Vector" class="st1" d="M34,12.2c0.2,0.3,0.6,0.5,1,0.3c0.3-0.2,0.5-0.7,0.3-1s-0.4-0.6-0.6-0.9c-0.2-0.3-0.6-0.5-1-0.3
		c-0.3,0.2-0.5,0.7-0.3,1C33.6,11.6,33.8,11.9,34,12.2z"/>
</g>
<g>
	<path id="Vector_2" class="st1" d="M26.5,26.3C32,21.1,37,15.6,41.6,9.7c0.3-0.1,0.5-0.4,0.4-0.8c-0.9-4.3-4.7-7.3-9-7.1
		c-0.2,0-0.3,0.1-0.4,0.1c-0.1,0-0.2,0.1-0.2,0.2c-5,5.5-10.1,10.9-15.1,16.4c-0.1,0.1-0.2,0.3-0.2,0.4S17,19.1,17,19.2
		c-0.3,2.2-0.6,4.4-0.7,6.6c-0.3-0.5-0.5-1.1-0.9-1.6c-0.6-0.7-1.5-0.9-2.3-0.6c-0.7,0.3-0.9,1.3-1.6,1.5c-0.4,0.1-1-0.9-1.2-1.1
		c-0.3-0.4-0.6-0.7-1.1-0.9c-0.7-0.4-1.6-0.2-2.1,0.4c-0.2,0.3-0.4,0.7-0.5,1c-0.1,0.2-0.2,0.9-0.4,0.9c-0.3,0-0.7-0.4-1-0.5
		c-0.3-0.2-0.7-0.3-1-0.3c-0.4,0-0.8,0.1-1.1,0.4c-0.2,0.2-0.3,0.3-0.4,0.5c-0.3,0.4-0.2,0.2-0.1,0.7c-0.2-0.9-1.7-0.6-1.5,0.3
		c0.2,0.8,0.9,1.1,1.7,0.9c0.4-0.1,0.7-0.4,0.9-0.7C3.9,26.3,4,26,4.5,26.3c0.7,0.4,1.3,0.8,2.1,0.6C7.5,26.7,7.8,25.8,8,25
		c0.1-0.5,0.2-0.8,0.7-0.5c0.4,0.3,0.7,0.8,1,1.2c0.7,0.7,1.6,1.1,2.5,0.6c0.5-0.3,1.2-1.7,1.7-1.4c0.5,0.2,0.7,0.8,0.9,1.3
		s0.5,1,0.9,1.3c0.3,0.3,0.7,0.4,1,0.1c2.7,0.1,5.4,0,8.1-0.4c0.2,0.1,0.5,0.1,0.8-0.1c0.1-0.1,0.3-0.3,0.4-0.4
		C26.3,26.6,26.5,26.5,26.5,26.3z M21.9,26c-0.5-1.9-1.9-3.2-3.8-3.6c0.1-0.8,0.2-1.6,0.3-2.4c0.1,0,0.1-0.1,0.2-0.1
		c1-0.8,2.1,0.2,1.9,1.3c-0.1,0.6,0.6,0.9,1.1,0.7c1.2-0.5,2.4,0.5,2.1,1.8c-0.1,0.4,0.2,1,0.7,1c0.6,0,0.9,0.3,0.8,0.7
		c-0.1,0.1-0.2,0.2-0.3,0.2C23.9,25.8,22.9,26,21.9,26z M28.4,8.6c1.4,0,2.6,0.5,3.6,1.5c0.7,0.7,1.8-0.3,1.1-1
		c-1-0.9-2.2-1.5-3.5-1.8c0.3-0.3,0.6-0.6,0.9-1l0,0c3.1,0.6,5.8,3.1,6.6,6.1c0,0.1,0.1,0.2,0.1,0.3c-0.9,1-1.7,2-2.6,3
		c-1.1-3.2-3.6-5.6-6.9-6.5C28,9,28.2,8.8,28.4,8.6z M25.3,23.3c0-0.4-0.1-0.8-0.2-1.1c0.2,0.1,0.5,0.1,0.8-0.1
		c2.2-2.5,4.5-5,6.7-7.5c0.4,0.6,0.7,1.3,0.9,2c0,0.1,0.1,0.2,0.2,0.3c-2.3,2.5-4.7,5-7.1,7.4C26.2,23.8,25.8,23.5,25.3,23.3z
		 M26.7,10.4h0.1c0.7,0.1,1.4,0.3,2,0.6c-1.9,1.9-3.7,3.8-5.6,5.7c-0.7,0.7,0.3,1.8,1,1.1c2-2,4-4.1,5.9-6.1
		c0.6,0.4,1.1,0.9,1.5,1.4c-2.3,2.5-4.6,5.1-6.8,7.6c-0.1,0.2-0.2,0.3-0.2,0.5C24,20.4,23,20,22,20c-0.2-1.2-1.3-2-2.4-2.1
		C22,15.6,24.3,13,26.7,10.4z M40.4,8.8c-0.7,0.9-1.3,1.7-2,2.5c-1.1-3.1-3.6-5.4-6.7-6.3c0.5-0.6,1.1-1.1,1.6-1.7
		C36.7,3.3,39.6,5.5,40.4,8.8z"/>
</g>
<g>
	<path id="Vector_3" class="st1" d="M17.3,11.8c-2.5,1.4-4.4,3.8-5.2,6.6c-0.3,0.9,1.2,1.4,1.4,0.5c0.7-2.4,2.3-4.5,4.5-5.7
		C18.8,12.7,18.2,11.4,17.3,11.8z"/>
</g>
<g>
	<path id="Vector_4" class="st1" d="M14,11.3c-1.2,0.9-2.1,2.1-2.7,3.6c-0.4,0.9,1,1.3,1.4,0.5c0.5-1.2,1.3-2.1,2.3-2.9
		C15.7,11.9,14.7,10.8,14,11.3z"/>
</g>
<g>
	<path id="Vector_5" class="st1" d="M39.5,18.3c0.3-0.9-1.2-1.4-1.4-0.5c-0.8,3.2-3,5.9-6,7.3c-0.9,0.4-0.2,1.8,0.7,1.4
		C36,24.9,38.5,21.9,39.5,18.3z"/>
</g>
<g>
	<path id="Vector_6" class="st1" d="M38.2,21.8c-1,1.8-2.3,3.2-3.9,4.4c-0.8,0.5,0.2,1.7,1,1.1c1.7-1.2,3.2-2.8,4.2-4.7
		C40,21.8,38.7,21,38.2,21.8z"/>
</g>
<g>
	<path id="EDIT" class="st2" d="M63.5,22c-0.8,0-1.4-0.2-1.8-0.6c-0.4-0.4-0.7-1-0.7-1.7v-7.9c0-0.7,0.2-1.3,0.6-1.7
		c0.4-0.4,1-0.6,1.8-0.6H69c0.6,0,0.8,0.2,0.8,0.7c0,0.2-0.1,0.4-0.2,0.5s-0.3,0.2-0.6,0.2h-5.4c-0.3,0-0.5,0.1-0.7,0.3
		s-0.2,0.4-0.2,0.7V15h5c0.6,0,0.8,0.2,0.8,0.7c0,0.2-0.1,0.4-0.2,0.5c-0.1,0.1-0.3,0.2-0.6,0.2h-5v3.4c0,0.3,0.1,0.5,0.2,0.7
		c0.2,0.2,0.4,0.3,0.7,0.3h5.8c0.3,0,0.5,0.1,0.6,0.2s0.2,0.3,0.2,0.5S70.1,21.9,70,22c-0.1,0-0.3,0-0.6,0H63.5z M75,22
		c-0.8,0-1.4-0.2-1.9-0.6c-0.4-0.4-0.6-1-0.6-1.7v-7.9c0-0.7,0.2-1.3,0.6-1.7s1-0.6,1.8-0.6h2.5c1.3,0,2.4,0.3,3.3,0.8
		c1,0.5,1.7,1.2,2.2,2.2s0.8,2.1,0.8,3.3s-0.3,2.4-0.8,3.3s-1.2,1.7-2.2,2.2c-0.9,0.5-2.1,0.8-3.4,0.8L75,22L75,22z M77.3,20.7
		c1.6,0,2.7-0.4,3.6-1.3c0.8-0.8,1.2-2.1,1.2-3.7s-0.4-2.8-1.2-3.7c-0.8-0.9-2-1.3-3.6-1.3h-2.2c-0.3,0-0.5,0.1-0.7,0.3
		s-0.2,0.4-0.2,0.7v7.9c0,0.3,0.1,0.5,0.2,0.7c0.2,0.2,0.4,0.3,0.7,0.3L77.3,20.7L77.3,20.7z M87.4,22.2c-0.3,0-0.5-0.1-0.6-0.2
		c-0.1-0.2-0.2-0.4-0.2-0.6V10.1c0-0.3,0.1-0.5,0.2-0.6c0.2-0.2,0.4-0.2,0.6-0.2c0.3,0,0.5,0.1,0.6,0.2c0.2,0.1,0.2,0.3,0.2,0.6
		v11.3c0,0.3-0.1,0.5-0.2,0.6C87.9,22.1,87.7,22.2,87.4,22.2z M96.4,22.2c-0.3,0-0.5-0.1-0.6-0.2c-0.1-0.2-0.2-0.4-0.2-0.6V10.8
		h-3.9c-0.3,0-0.5-0.1-0.6-0.2c-0.1-0.1-0.2-0.3-0.2-0.5c0-0.5,0.3-0.7,0.8-0.7h9.5c0.3,0,0.5,0.1,0.6,0.2c0.1,0.1,0.2,0.3,0.2,0.5
		s-0.1,0.4-0.2,0.5s-0.3,0.2-0.6,0.2h-3.9v10.6c0,0.3-0.1,0.5-0.2,0.6C96.9,22.1,96.7,22.2,96.4,22.2z"/>
</g>
<g>
	<defs>
		<rect id="SVGID_3_" x="50.8" y="2.8" width="0.2" height="24"/>
	</defs>
	<clipPath id="SVGID_4_">
		<use xlink:href="#SVGID_3_"  style="overflow:visible;"/>
	</clipPath>
</g>
<g>
	<defs>
		<rect id="SVGID_5_" x="50.8" y="2.8" width="0.2" height="24"/>
	</defs>
	<defs>
		<path id="SVGID_6_" d="M34,12.2c0.2,0.3,0.6,0.5,1,0.3c0.3-0.2,0.5-0.7,0.3-1s-0.4-0.6-0.6-0.9c-0.2-0.3-0.6-0.5-1-0.3
			c-0.3,0.2-0.5,0.7-0.3,1C33.6,11.6,33.8,11.9,34,12.2z"/>
	</defs>
	<clipPath id="SVGID_7_">
		<use xlink:href="#SVGID_5_"  style="overflow:visible;"/>
	</clipPath>
	<clipPath id="SVGID_8_" class="st3">
		<use xlink:href="#SVGID_6_"  style="overflow:visible;"/>
	</clipPath>
</g>
<g>
	<defs>
		<rect id="SVGID_9_" x="50.8" y="2.8" width="0.2" height="24"/>
	</defs>
	<defs>
		<path id="SVGID_10_" d="M34,12.2c0.2,0.3,0.6,0.5,1,0.3c0.3-0.2,0.5-0.7,0.3-1s-0.4-0.6-0.6-0.9c-0.2-0.3-0.6-0.5-1-0.3
			c-0.3,0.2-0.5,0.7-0.3,1C33.6,11.6,33.8,11.9,34,12.2z"/>
	</defs>
	<defs>
		<path id="SVGID_11_" d="M26.5,26.3C32,21.1,37,15.6,41.6,9.7c0.3-0.1,0.5-0.4,0.4-0.8c-0.9-4.3-4.7-7.3-9-7.1
			c-0.2,0-0.3,0.1-0.4,0.1c-0.1,0-0.2,0.1-0.2,0.2c-5,5.5-10.1,10.9-15.1,16.4c-0.1,0.1-0.2,0.3-0.2,0.4S17,19.1,17,19.2
			c-0.3,2.2-0.6,4.4-0.7,6.6c-0.3-0.5-0.5-1.1-0.9-1.6c-0.6-0.7-1.5-0.9-2.3-0.6c-0.7,0.3-0.9,1.3-1.6,1.5c-0.4,0.1-1-0.9-1.2-1.1
			c-0.3-0.4-0.6-0.7-1.1-0.9c-0.7-0.4-1.6-0.2-2.1,0.4c-0.2,0.3-0.4,0.7-0.5,1c-0.1,0.2-0.2,0.9-0.4,0.9c-0.3,0-0.7-0.4-1-0.5
			c-0.3-0.2-0.7-0.3-1-0.3c-0.4,0-0.8,0.1-1.1,0.4c-0.2,0.2-0.3,0.3-0.4,0.5c-0.3,0.4-0.2,0.2-0.1,0.7c-0.2-0.9-1.7-0.6-1.5,0.3
			c0.2,0.8,0.9,1.1,1.7,0.9c0.4-0.1,0.7-0.4,0.9-0.7C3.9,26.3,4,26,4.5,26.3c0.7,0.4,1.3,0.8,2.1,0.6C7.5,26.7,7.8,25.8,8,25
			c0.1-0.5,0.2-0.8,0.7-0.5c0.4,0.3,0.7,0.8,1,1.2c0.7,0.7,1.6,1.1,2.5,0.6c0.5-0.3,1.2-1.7,1.7-1.4c0.5,0.2,0.7,0.8,0.9,1.3
			s0.5,1,0.9,1.3c0.3,0.3,0.7,0.4,1,0.1c2.7,0.1,5.4,0,8.1-0.4c0.2,0.1,0.5,0.1,0.8-0.1c0.1-0.1,0.3-0.3,0.4-0.4
			C26.3,26.6,26.5,26.5,26.5,26.3z M21.9,26c-0.5-1.9-1.9-3.2-3.8-3.6c0.1-0.8,0.2-1.6,0.3-2.4c0.1,0,0.1-0.1,0.2-0.1
			c1-0.8,2.1,0.2,1.9,1.3c-0.1,0.6,0.6,0.9,1.1,0.7c1.2-0.5,2.4,0.5,2.1,1.8c-0.1,0.4,0.2,1,0.7,1c0.6,0,0.9,0.3,0.8,0.7
			c-0.1,0.1-0.2,0.2-0.3,0.2C23.9,25.8,22.9,26,21.9,26z M28.4,8.6c1.4,0,2.6,0.5,3.6,1.5c0.7,0.7,1.8-0.3,1.1-1
			c-1-0.9-2.2-1.5-3.5-1.8c0.3-0.3,0.6-0.6,0.9-1l0,0c3.1,0.6,5.8,3.1,6.6,6.1c0,0.1,0.1,0.2,0.1,0.3c-0.9,1-1.7,2-2.6,3
			c-1.1-3.2-3.6-5.6-6.9-6.5C28,9,28.2,8.8,28.4,8.6z M25.3,23.3c0-0.4-0.1-0.8-0.2-1.1c0.2,0.1,0.5,0.1,0.8-0.1
			c2.2-2.5,4.5-5,6.7-7.5c0.4,0.6,0.7,1.3,0.9,2c0,0.1,0.1,0.2,0.2,0.3c-2.3,2.5-4.7,5-7.1,7.4C26.2,23.8,25.8,23.5,25.3,23.3z
			 M26.7,10.4h0.1c0.7,0.1,1.4,0.3,2,0.6c-1.9,1.9-3.7,3.8-5.6,5.7c-0.7,0.7,0.3,1.8,1,1.1c2-2,4-4.1,5.9-6.1
			c0.6,0.4,1.1,0.9,1.5,1.4c-2.3,2.5-4.6,5.1-6.8,7.6c-0.1,0.2-0.2,0.3-0.2,0.5C24,20.4,23,20,22,20c-0.2-1.2-1.3-2-2.4-2.1
			C22,15.6,24.3,13,26.7,10.4z M40.4,8.8c-0.7,0.9-1.3,1.7-2,2.5c-1.1-3.1-3.6-5.4-6.7-6.3c0.5-0.6,1.1-1.1,1.6-1.7
			C36.7,3.3,39.6,5.5,40.4,8.8z"/>
	</defs>
	<clipPath id="SVGID_12_">
		<use xlink:href="#SVGID_9_"  style="overflow:visible;"/>
	</clipPath>
	<clipPath id="SVGID_13_" class="st4">
		<use xlink:href="#SVGID_10_"  style="overflow:visible;"/>
	</clipPath>
	<clipPath id="SVGID_14_" class="st5">
		<use xlink:href="#SVGID_11_"  style="overflow:visible;"/>
	</clipPath>
</g>
<g>
	<defs>
		<rect id="SVGID_15_" x="50.8" y="2.8" width="0.2" height="24"/>
	</defs>
	<defs>
		<path id="SVGID_16_" d="M34,12.2c0.2,0.3,0.6,0.5,1,0.3c0.3-0.2,0.5-0.7,0.3-1s-0.4-0.6-0.6-0.9c-0.2-0.3-0.6-0.5-1-0.3
			c-0.3,0.2-0.5,0.7-0.3,1C33.6,11.6,33.8,11.9,34,12.2z"/>
	</defs>
	<defs>
		<path id="SVGID_17_" d="M26.5,26.3C32,21.1,37,15.6,41.6,9.7c0.3-0.1,0.5-0.4,0.4-0.8c-0.9-4.3-4.7-7.3-9-7.1
			c-0.2,0-0.3,0.1-0.4,0.1c-0.1,0-0.2,0.1-0.2,0.2c-5,5.5-10.1,10.9-15.1,16.4c-0.1,0.1-0.2,0.3-0.2,0.4S17,19.1,17,19.2
			c-0.3,2.2-0.6,4.4-0.7,6.6c-0.3-0.5-0.5-1.1-0.9-1.6c-0.6-0.7-1.5-0.9-2.3-0.6c-0.7,0.3-0.9,1.3-1.6,1.5c-0.4,0.1-1-0.9-1.2-1.1
			c-0.3-0.4-0.6-0.7-1.1-0.9c-0.7-0.4-1.6-0.2-2.1,0.4c-0.2,0.3-0.4,0.7-0.5,1c-0.1,0.2-0.2,0.9-0.4,0.9c-0.3,0-0.7-0.4-1-0.5
			c-0.3-0.2-0.7-0.3-1-0.3c-0.4,0-0.8,0.1-1.1,0.4c-0.2,0.2-0.3,0.3-0.4,0.5c-0.3,0.4-0.2,0.2-0.1,0.7c-0.2-0.9-1.7-0.6-1.5,0.3
			c0.2,0.8,0.9,1.1,1.7,0.9c0.4-0.1,0.7-0.4,0.9-0.7C3.9,26.3,4,26,4.5,26.3c0.7,0.4,1.3,0.8,2.1,0.6C7.5,26.7,7.8,25.8,8,25
			c0.1-0.5,0.2-0.8,0.7-0.5c0.4,0.3,0.7,0.8,1,1.2c0.7,0.7,1.6,1.1,2.5,0.6c0.5-0.3,1.2-1.7,1.7-1.4c0.5,0.2,0.7,0.8,0.9,1.3
			s0.5,1,0.9,1.3c0.3,0.3,0.7,0.4,1,0.1c2.7,0.1,5.4,0,8.1-0.4c0.2,0.1,0.5,0.1,0.8-0.1c0.1-0.1,0.3-0.3,0.4-0.4
			C26.3,26.6,26.5,26.5,26.5,26.3z M21.9,26c-0.5-1.9-1.9-3.2-3.8-3.6c0.1-0.8,0.2-1.6,0.3-2.4c0.1,0,0.1-0.1,0.2-0.1
			c1-0.8,2.1,0.2,1.9,1.3c-0.1,0.6,0.6,0.9,1.1,0.7c1.2-0.5,2.4,0.5,2.1,1.8c-0.1,0.4,0.2,1,0.7,1c0.6,0,0.9,0.3,0.8,0.7
			c-0.1,0.1-0.2,0.2-0.3,0.2C23.9,25.8,22.9,26,21.9,26z M28.4,8.6c1.4,0,2.6,0.5,3.6,1.5c0.7,0.7,1.8-0.3,1.1-1
			c-1-0.9-2.2-1.5-3.5-1.8c0.3-0.3,0.6-0.6,0.9-1l0,0c3.1,0.6,5.8,3.1,6.6,6.1c0,0.1,0.1,0.2,0.1,0.3c-0.9,1-1.7,2-2.6,3
			c-1.1-3.2-3.6-5.6-6.9-6.5C28,9,28.2,8.8,28.4,8.6z M25.3,23.3c0-0.4-0.1-0.8-0.2-1.1c0.2,0.1,0.5,0.1,0.8-0.1
			c2.2-2.5,4.5-5,6.7-7.5c0.4,0.6,0.7,1.3,0.9,2c0,0.1,0.1,0.2,0.2,0.3c-2.3,2.5-4.7,5-7.1,7.4C26.2,23.8,25.8,23.5,25.3,23.3z
			 M26.7,10.4h0.1c0.7,0.1,1.4,0.3,2,0.6c-1.9,1.9-3.7,3.8-5.6,5.7c-0.7,0.7,0.3,1.8,1,1.1c2-2,4-4.1,5.9-6.1
			c0.6,0.4,1.1,0.9,1.5,1.4c-2.3,2.5-4.6,5.1-6.8,7.6c-0.1,0.2-0.2,0.3-0.2,0.5C24,20.4,23,20,22,20c-0.2-1.2-1.3-2-2.4-2.1
			C22,15.6,24.3,13,26.7,10.4z M40.4,8.8c-0.7,0.9-1.3,1.7-2,2.5c-1.1-3.1-3.6-5.4-6.7-6.3c0.5-0.6,1.1-1.1,1.6-1.7
			C36.7,3.3,39.6,5.5,40.4,8.8z"/>
	</defs>
	<defs>
		<path id="SVGID_18_" d="M17.3,11.8c-2.5,1.4-4.4,3.8-5.2,6.6c-0.3,0.9,1.2,1.4,1.4,0.5c0.7-2.4,2.3-4.5,4.5-5.7
			C18.8,12.7,18.2,11.4,17.3,11.8z"/>
	</defs>
	<clipPath id="SVGID_19_">
		<use xlink:href="#SVGID_15_"  style="overflow:visible;"/>
	</clipPath>
	<clipPath id="SVGID_20_" class="st6">
		<use xlink:href="#SVGID_16_"  style="overflow:visible;"/>
	</clipPath>
	<clipPath id="SVGID_21_" class="st7">
		<use xlink:href="#SVGID_17_"  style="overflow:visible;"/>
	</clipPath>
	<clipPath id="SVGID_22_" class="st8">
		<use xlink:href="#SVGID_18_"  style="overflow:visible;"/>
	</clipPath>
</g>
<g>
	<defs>
		<rect id="SVGID_23_" x="50.8" y="2.8" width="0.2" height="24"/>
	</defs>
	<defs>
		<path id="SVGID_24_" d="M34,12.2c0.2,0.3,0.6,0.5,1,0.3c0.3-0.2,0.5-0.7,0.3-1s-0.4-0.6-0.6-0.9c-0.2-0.3-0.6-0.5-1-0.3
			c-0.3,0.2-0.5,0.7-0.3,1C33.6,11.6,33.8,11.9,34,12.2z"/>
	</defs>
	<defs>
		<path id="SVGID_25_" d="M26.5,26.3C32,21.1,37,15.6,41.6,9.7c0.3-0.1,0.5-0.4,0.4-0.8c-0.9-4.3-4.7-7.3-9-7.1
			c-0.2,0-0.3,0.1-0.4,0.1c-0.1,0-0.2,0.1-0.2,0.2c-5,5.5-10.1,10.9-15.1,16.4c-0.1,0.1-0.2,0.3-0.2,0.4S17,19.1,17,19.2
			c-0.3,2.2-0.6,4.4-0.7,6.6c-0.3-0.5-0.5-1.1-0.9-1.6c-0.6-0.7-1.5-0.9-2.3-0.6c-0.7,0.3-0.9,1.3-1.6,1.5c-0.4,0.1-1-0.9-1.2-1.1
			c-0.3-0.4-0.6-0.7-1.1-0.9c-0.7-0.4-1.6-0.2-2.1,0.4c-0.2,0.3-0.4,0.7-0.5,1c-0.1,0.2-0.2,0.9-0.4,0.9c-0.3,0-0.7-0.4-1-0.5
			c-0.3-0.2-0.7-0.3-1-0.3c-0.4,0-0.8,0.1-1.1,0.4c-0.2,0.2-0.3,0.3-0.4,0.5c-0.3,0.4-0.2,0.2-0.1,0.7c-0.2-0.9-1.7-0.6-1.5,0.3
			c0.2,0.8,0.9,1.1,1.7,0.9c0.4-0.1,0.7-0.4,0.9-0.7C3.9,26.3,4,26,4.5,26.3c0.7,0.4,1.3,0.8,2.1,0.6C7.5,26.7,7.8,25.8,8,25
			c0.1-0.5,0.2-0.8,0.7-0.5c0.4,0.3,0.7,0.8,1,1.2c0.7,0.7,1.6,1.1,2.5,0.6c0.5-0.3,1.2-1.7,1.7-1.4c0.5,0.2,0.7,0.8,0.9,1.3
			s0.5,1,0.9,1.3c0.3,0.3,0.7,0.4,1,0.1c2.7,0.1,5.4,0,8.1-0.4c0.2,0.1,0.5,0.1,0.8-0.1c0.1-0.1,0.3-0.3,0.4-0.4
			C26.3,26.6,26.5,26.5,26.5,26.3z M21.9,26c-0.5-1.9-1.9-3.2-3.8-3.6c0.1-0.8,0.2-1.6,0.3-2.4c0.1,0,0.1-0.1,0.2-0.1
			c1-0.8,2.1,0.2,1.9,1.3c-0.1,0.6,0.6,0.9,1.1,0.7c1.2-0.5,2.4,0.5,2.1,1.8c-0.1,0.4,0.2,1,0.7,1c0.6,0,0.9,0.3,0.8,0.7
			c-0.1,0.1-0.2,0.2-0.3,0.2C23.9,25.8,22.9,26,21.9,26z M28.4,8.6c1.4,0,2.6,0.5,3.6,1.5c0.7,0.7,1.8-0.3,1.1-1
			c-1-0.9-2.2-1.5-3.5-1.8c0.3-0.3,0.6-0.6,0.9-1l0,0c3.1,0.6,5.8,3.1,6.6,6.1c0,0.1,0.1,0.2,0.1,0.3c-0.9,1-1.7,2-2.6,3
			c-1.1-3.2-3.6-5.6-6.9-6.5C28,9,28.2,8.8,28.4,8.6z M25.3,23.3c0-0.4-0.1-0.8-0.2-1.1c0.2,0.1,0.5,0.1,0.8-0.1
			c2.2-2.5,4.5-5,6.7-7.5c0.4,0.6,0.7,1.3,0.9,2c0,0.1,0.1,0.2,0.2,0.3c-2.3,2.5-4.7,5-7.1,7.4C26.2,23.8,25.8,23.5,25.3,23.3z
			 M26.7,10.4h0.1c0.7,0.1,1.4,0.3,2,0.6c-1.9,1.9-3.7,3.8-5.6,5.7c-0.7,0.7,0.3,1.8,1,1.1c2-2,4-4.1,5.9-6.1
			c0.6,0.4,1.1,0.9,1.5,1.4c-2.3,2.5-4.6,5.1-6.8,7.6c-0.1,0.2-0.2,0.3-0.2,0.5C24,20.4,23,20,22,20c-0.2-1.2-1.3-2-2.4-2.1
			C22,15.6,24.3,13,26.7,10.4z M40.4,8.8c-0.7,0.9-1.3,1.7-2,2.5c-1.1-3.1-3.6-5.4-6.7-6.3c0.5-0.6,1.1-1.1,1.6-1.7
			C36.7,3.3,39.6,5.5,40.4,8.8z"/>
	</defs>
	<defs>
		<path id="SVGID_26_" d="M17.3,11.8c-2.5,1.4-4.4,3.8-5.2,6.6c-0.3,0.9,1.2,1.4,1.4,0.5c0.7-2.4,2.3-4.5,4.5-5.7
			C18.8,12.7,18.2,11.4,17.3,11.8z"/>
	</defs>
	<defs>
		<path id="SVGID_27_" d="M14,11.3c-1.2,0.9-2.1,2.1-2.7,3.6c-0.4,0.9,1,1.3,1.4,0.5c0.5-1.2,1.3-2.1,2.3-2.9
			C15.7,11.9,14.7,10.8,14,11.3z"/>
	</defs>
	<clipPath id="SVGID_28_">
		<use xlink:href="#SVGID_23_"  style="overflow:visible;"/>
	</clipPath>
	<clipPath id="SVGID_29_" class="st9">
		<use xlink:href="#SVGID_24_"  style="overflow:visible;"/>
	</clipPath>
	<clipPath id="SVGID_30_" class="st10">
		<use xlink:href="#SVGID_25_"  style="overflow:visible;"/>
	</clipPath>
	<clipPath id="SVGID_31_" class="st11">
		<use xlink:href="#SVGID_26_"  style="overflow:visible;"/>
	</clipPath>
	<clipPath id="SVGID_32_" class="st12">
		<use xlink:href="#SVGID_27_"  style="overflow:visible;"/>
	</clipPath>
</g>
<g>
	<defs>
		<rect id="SVGID_33_" x="50.8" y="2.8" width="0.2" height="24"/>
	</defs>
	<defs>
		<path id="SVGID_34_" d="M34,12.2c0.2,0.3,0.6,0.5,1,0.3c0.3-0.2,0.5-0.7,0.3-1s-0.4-0.6-0.6-0.9c-0.2-0.3-0.6-0.5-1-0.3
			c-0.3,0.2-0.5,0.7-0.3,1C33.6,11.6,33.8,11.9,34,12.2z"/>
	</defs>
	<defs>
		<path id="SVGID_35_" d="M26.5,26.3C32,21.1,37,15.6,41.6,9.7c0.3-0.1,0.5-0.4,0.4-0.8c-0.9-4.3-4.7-7.3-9-7.1
			c-0.2,0-0.3,0.1-0.4,0.1c-0.1,0-0.2,0.1-0.2,0.2c-5,5.5-10.1,10.9-15.1,16.4c-0.1,0.1-0.2,0.3-0.2,0.4S17,19.1,17,19.2
			c-0.3,2.2-0.6,4.4-0.7,6.6c-0.3-0.5-0.5-1.1-0.9-1.6c-0.6-0.7-1.5-0.9-2.3-0.6c-0.7,0.3-0.9,1.3-1.6,1.5c-0.4,0.1-1-0.9-1.2-1.1
			c-0.3-0.4-0.6-0.7-1.1-0.9c-0.7-0.4-1.6-0.2-2.1,0.4c-0.2,0.3-0.4,0.7-0.5,1c-0.1,0.2-0.2,0.9-0.4,0.9c-0.3,0-0.7-0.4-1-0.5
			c-0.3-0.2-0.7-0.3-1-0.3c-0.4,0-0.8,0.1-1.1,0.4c-0.2,0.2-0.3,0.3-0.4,0.5c-0.3,0.4-0.2,0.2-0.1,0.7c-0.2-0.9-1.7-0.6-1.5,0.3
			c0.2,0.8,0.9,1.1,1.7,0.9c0.4-0.1,0.7-0.4,0.9-0.7C3.9,26.3,4,26,4.5,26.3c0.7,0.4,1.3,0.8,2.1,0.6C7.5,26.7,7.8,25.8,8,25
			c0.1-0.5,0.2-0.8,0.7-0.5c0.4,0.3,0.7,0.8,1,1.2c0.7,0.7,1.6,1.1,2.5,0.6c0.5-0.3,1.2-1.7,1.7-1.4c0.5,0.2,0.7,0.8,0.9,1.3
			s0.5,1,0.9,1.3c0.3,0.3,0.7,0.4,1,0.1c2.7,0.1,5.4,0,8.1-0.4c0.2,0.1,0.5,0.1,0.8-0.1c0.1-0.1,0.3-0.3,0.4-0.4
			C26.3,26.6,26.5,26.5,26.5,26.3z M21.9,26c-0.5-1.9-1.9-3.2-3.8-3.6c0.1-0.8,0.2-1.6,0.3-2.4c0.1,0,0.1-0.1,0.2-0.1
			c1-0.8,2.1,0.2,1.9,1.3c-0.1,0.6,0.6,0.9,1.1,0.7c1.2-0.5,2.4,0.5,2.1,1.8c-0.1,0.4,0.2,1,0.7,1c0.6,0,0.9,0.3,0.8,0.7
			c-0.1,0.1-0.2,0.2-0.3,0.2C23.9,25.8,22.9,26,21.9,26z M28.4,8.6c1.4,0,2.6,0.5,3.6,1.5c0.7,0.7,1.8-0.3,1.1-1
			c-1-0.9-2.2-1.5-3.5-1.8c0.3-0.3,0.6-0.6,0.9-1l0,0c3.1,0.6,5.8,3.1,6.6,6.1c0,0.1,0.1,0.2,0.1,0.3c-0.9,1-1.7,2-2.6,3
			c-1.1-3.2-3.6-5.6-6.9-6.5C28,9,28.2,8.8,28.4,8.6z M25.3,23.3c0-0.4-0.1-0.8-0.2-1.1c0.2,0.1,0.5,0.1,0.8-0.1
			c2.2-2.5,4.5-5,6.7-7.5c0.4,0.6,0.7,1.3,0.9,2c0,0.1,0.1,0.2,0.2,0.3c-2.3,2.5-4.7,5-7.1,7.4C26.2,23.8,25.8,23.5,25.3,23.3z
			 M26.7,10.4h0.1c0.7,0.1,1.4,0.3,2,0.6c-1.9,1.9-3.7,3.8-5.6,5.7c-0.7,0.7,0.3,1.8,1,1.1c2-2,4-4.1,5.9-6.1
			c0.6,0.4,1.1,0.9,1.5,1.4c-2.3,2.5-4.6,5.1-6.8,7.6c-0.1,0.2-0.2,0.3-0.2,0.5C24,20.4,23,20,22,20c-0.2-1.2-1.3-2-2.4-2.1
			C22,15.6,24.3,13,26.7,10.4z M40.4,8.8c-0.7,0.9-1.3,1.7-2,2.5c-1.1-3.1-3.6-5.4-6.7-6.3c0.5-0.6,1.1-1.1,1.6-1.7
			C36.7,3.3,39.6,5.5,40.4,8.8z"/>
	</defs>
	<defs>
		<path id="SVGID_36_" d="M17.3,11.8c-2.5,1.4-4.4,3.8-5.2,6.6c-0.3,0.9,1.2,1.4,1.4,0.5c0.7-2.4,2.3-4.5,4.5-5.7
			C18.8,12.7,18.2,11.4,17.3,11.8z"/>
	</defs>
	<defs>
		<path id="SVGID_37_" d="M14,11.3c-1.2,0.9-2.1,2.1-2.7,3.6c-0.4,0.9,1,1.3,1.4,0.5c0.5-1.2,1.3-2.1,2.3-2.9
			C15.7,11.9,14.7,10.8,14,11.3z"/>
	</defs>
	<defs>
		<path id="SVGID_38_" d="M39.5,18.3c0.3-0.9-1.2-1.4-1.4-0.5c-0.8,3.2-3,5.9-6,7.3c-0.9,0.4-0.2,1.8,0.7,1.4
			C36,24.9,38.5,21.9,39.5,18.3z"/>
	</defs>
	<clipPath id="SVGID_39_">
		<use xlink:href="#SVGID_33_"  style="overflow:visible;"/>
	</clipPath>
	<clipPath id="SVGID_40_" class="st13">
		<use xlink:href="#SVGID_34_"  style="overflow:visible;"/>
	</clipPath>
	<clipPath id="SVGID_41_" class="st14">
		<use xlink:href="#SVGID_35_"  style="overflow:visible;"/>
	</clipPath>
	<clipPath id="SVGID_42_" class="st15">
		<use xlink:href="#SVGID_36_"  style="overflow:visible;"/>
	</clipPath>
	<clipPath id="SVGID_43_" class="st16">
		<use xlink:href="#SVGID_37_"  style="overflow:visible;"/>
	</clipPath>
	<clipPath id="SVGID_44_" class="st17">
		<use xlink:href="#SVGID_38_"  style="overflow:visible;"/>
	</clipPath>
</g>
<g>
	<defs>
		<rect id="SVGID_45_" x="50.8" y="2.8" width="0.2" height="24"/>
	</defs>
	<defs>
		<path id="SVGID_46_" d="M34,12.2c0.2,0.3,0.6,0.5,1,0.3c0.3-0.2,0.5-0.7,0.3-1s-0.4-0.6-0.6-0.9c-0.2-0.3-0.6-0.5-1-0.3
			c-0.3,0.2-0.5,0.7-0.3,1C33.6,11.6,33.8,11.9,34,12.2z"/>
	</defs>
	<defs>
		<path id="SVGID_47_" d="M26.5,26.3C32,21.1,37,15.6,41.6,9.7c0.3-0.1,0.5-0.4,0.4-0.8c-0.9-4.3-4.7-7.3-9-7.1
			c-0.2,0-0.3,0.1-0.4,0.1c-0.1,0-0.2,0.1-0.2,0.2c-5,5.5-10.1,10.9-15.1,16.4c-0.1,0.1-0.2,0.3-0.2,0.4S17,19.1,17,19.2
			c-0.3,2.2-0.6,4.4-0.7,6.6c-0.3-0.5-0.5-1.1-0.9-1.6c-0.6-0.7-1.5-0.9-2.3-0.6c-0.7,0.3-0.9,1.3-1.6,1.5c-0.4,0.1-1-0.9-1.2-1.1
			c-0.3-0.4-0.6-0.7-1.1-0.9c-0.7-0.4-1.6-0.2-2.1,0.4c-0.2,0.3-0.4,0.7-0.5,1c-0.1,0.2-0.2,0.9-0.4,0.9c-0.3,0-0.7-0.4-1-0.5
			c-0.3-0.2-0.7-0.3-1-0.3c-0.4,0-0.8,0.1-1.1,0.4c-0.2,0.2-0.3,0.3-0.4,0.5c-0.3,0.4-0.2,0.2-0.1,0.7c-0.2-0.9-1.7-0.6-1.5,0.3
			c0.2,0.8,0.9,1.1,1.7,0.9c0.4-0.1,0.7-0.4,0.9-0.7C3.9,26.3,4,26,4.5,26.3c0.7,0.4,1.3,0.8,2.1,0.6C7.5,26.7,7.8,25.8,8,25
			c0.1-0.5,0.2-0.8,0.7-0.5c0.4,0.3,0.7,0.8,1,1.2c0.7,0.7,1.6,1.1,2.5,0.6c0.5-0.3,1.2-1.7,1.7-1.4c0.5,0.2,0.7,0.8,0.9,1.3
			s0.5,1,0.9,1.3c0.3,0.3,0.7,0.4,1,0.1c2.7,0.1,5.4,0,8.1-0.4c0.2,0.1,0.5,0.1,0.8-0.1c0.1-0.1,0.3-0.3,0.4-0.4
			C26.3,26.6,26.5,26.5,26.5,26.3z M21.9,26c-0.5-1.9-1.9-3.2-3.8-3.6c0.1-0.8,0.2-1.6,0.3-2.4c0.1,0,0.1-0.1,0.2-0.1
			c1-0.8,2.1,0.2,1.9,1.3c-0.1,0.6,0.6,0.9,1.1,0.7c1.2-0.5,2.4,0.5,2.1,1.8c-0.1,0.4,0.2,1,0.7,1c0.6,0,0.9,0.3,0.8,0.7
			c-0.1,0.1-0.2,0.2-0.3,0.2C23.9,25.8,22.9,26,21.9,26z M28.4,8.6c1.4,0,2.6,0.5,3.6,1.5c0.7,0.7,1.8-0.3,1.1-1
			c-1-0.9-2.2-1.5-3.5-1.8c0.3-0.3,0.6-0.6,0.9-1l0,0c3.1,0.6,5.8,3.1,6.6,6.1c0,0.1,0.1,0.2,0.1,0.3c-0.9,1-1.7,2-2.6,3
			c-1.1-3.2-3.6-5.6-6.9-6.5C28,9,28.2,8.8,28.4,8.6z M25.3,23.3c0-0.4-0.1-0.8-0.2-1.1c0.2,0.1,0.5,0.1,0.8-0.1
			c2.2-2.5,4.5-5,6.7-7.5c0.4,0.6,0.7,1.3,0.9,2c0,0.1,0.1,0.2,0.2,0.3c-2.3,2.5-4.7,5-7.1,7.4C26.2,23.8,25.8,23.5,25.3,23.3z
			 M26.7,10.4h0.1c0.7,0.1,1.4,0.3,2,0.6c-1.9,1.9-3.7,3.8-5.6,5.7c-0.7,0.7,0.3,1.8,1,1.1c2-2,4-4.1,5.9-6.1
			c0.6,0.4,1.1,0.9,1.5,1.4c-2.3,2.5-4.6,5.1-6.8,7.6c-0.1,0.2-0.2,0.3-0.2,0.5C24,20.4,23,20,22,20c-0.2-1.2-1.3-2-2.4-2.1
			C22,15.6,24.3,13,26.7,10.4z M40.4,8.8c-0.7,0.9-1.3,1.7-2,2.5c-1.1-3.1-3.6-5.4-6.7-6.3c0.5-0.6,1.1-1.1,1.6-1.7
			C36.7,3.3,39.6,5.5,40.4,8.8z"/>
	</defs>
	<defs>
		<path id="SVGID_48_" d="M17.3,11.8c-2.5,1.4-4.4,3.8-5.2,6.6c-0.3,0.9,1.2,1.4,1.4,0.5c0.7-2.4,2.3-4.5,4.5-5.7
			C18.8,12.7,18.2,11.4,17.3,11.8z"/>
	</defs>
	<defs>
		<path id="SVGID_49_" d="M14,11.3c-1.2,0.9-2.1,2.1-2.7,3.6c-0.4,0.9,1,1.3,1.4,0.5c0.5-1.2,1.3-2.1,2.3-2.9
			C15.7,11.9,14.7,10.8,14,11.3z"/>
	</defs>
	<defs>
		<path id="SVGID_50_" d="M39.5,18.3c0.3-0.9-1.2-1.4-1.4-0.5c-0.8,3.2-3,5.9-6,7.3c-0.9,0.4-0.2,1.8,0.7,1.4
			C36,24.9,38.5,21.9,39.5,18.3z"/>
	</defs>
	<defs>
		<path id="SVGID_51_" d="M38.2,21.8c-1,1.8-2.3,3.2-3.9,4.4c-0.8,0.5,0.2,1.7,1,1.1c1.7-1.2,3.2-2.8,4.2-4.7
			C40,21.8,38.7,21,38.2,21.8z"/>
	</defs>
	<use xlink:href="#SVGID_45_"  style="overflow:visible;fill:#993333;"/>
	<use xlink:href="#SVGID_46_"  style="overflow:visible;fill:#993333;"/>
	<use xlink:href="#SVGID_47_"  style="overflow:visible;fill:#993333;"/>
	<use xlink:href="#SVGID_48_"  style="overflow:visible;fill:#993333;"/>
	<use xlink:href="#SVGID_49_"  style="overflow:visible;fill:#993333;"/>
	<use xlink:href="#SVGID_50_"  style="overflow:visible;fill:#993333;"/>
	<use xlink:href="#SVGID_51_"  style="overflow:visible;fill:#993333;"/>
	<clipPath id="SVGID_52_">
		<use xlink:href="#SVGID_45_"  style="overflow:visible;"/>
	</clipPath>
	<clipPath id="SVGID_53_" class="st18">
		<use xlink:href="#SVGID_46_"  style="overflow:visible;"/>
	</clipPath>
	<clipPath id="SVGID_54_" class="st19">
		<use xlink:href="#SVGID_47_"  style="overflow:visible;"/>
	</clipPath>
	<clipPath id="SVGID_55_" class="st20">
		<use xlink:href="#SVGID_48_"  style="overflow:visible;"/>
	</clipPath>
	<clipPath id="SVGID_56_" class="st21">
		<use xlink:href="#SVGID_49_"  style="overflow:visible;"/>
	</clipPath>
	<clipPath id="SVGID_57_" class="st22">
		<use xlink:href="#SVGID_50_"  style="overflow:visible;"/>
	</clipPath>
	<clipPath id="SVGID_58_" class="st23">
		<use xlink:href="#SVGID_51_"  style="overflow:visible;"/>
	</clipPath>
</g>
<g>
	<rect id="SVGID_2_" x="50.8" y="2.8" class="st24" width="0.2" height="24"/>
</g>
</svg>
