<?xml version="1.0" encoding="utf-8"?>
<!-- Generator: Adobe Illustrator 22.0.1, SVG Export Plug-In . SVG Version: 6.00 Build 0)  -->
<svg version="1.1" xmlns="http://www.w3.org/2000/svg" xmlns:xlink="http://www.w3.org/1999/xlink" x="0px" y="0px"
	 viewBox="0 0 512 316.1" style="enable-background:new 0 0 512 316.1;" xml:space="preserve">
<style type="text/css">
	.st0{fill:#D66A6A;}
	.st1{fill:#FFFFFF;}
	.st2{opacity:0.1;fill:#B3B6B7;enable-background:new    ;}
	.st3{fill:#A55353;}
	.st4{fill:#2A2C3F;}
	.st5{opacity:0.1;enable-background:new    ;}
</style>
<g id="Layer_2">
	<rect x="0.5" y="0" class="st0" width="511.5" height="315.9"/>
</g>
<g id="Capa_1">
	<path class="st1" d="M426.4,170.4c0-98.4-71.7-158-160.1-158S106.1,72,106.1,170.4s71.7,138.3,160.1,138.3S426.4,268.7,426.4,170.4
		z"/>
	<path class="st2" d="M266.2,283.7c37,0,75.7-12.9,67-72.6c-10.8-74.4-44.9-97.6-67-97.6c-22.1,0-56.1,23.2-67,97.6
		C190.6,270.8,229.2,283.7,266.2,283.7z"/>
	<path class="st0" d="M266.2,234.1c-7.8,0-15.1-2.5-20.9-6.8v29.4c0,11.6,9.4,20.9,20.9,20.9c11.6,0,20.9-9.4,20.9-20.9v-29.4
		C281.3,231.6,274,234.1,266.2,234.1z"/>
	<path class="st3" d="M266.2,260.2c-3.4,0-6.2-2.8-6.2-6.2v-19.9c0-3.4,2.8-6.2,6.2-6.2c3.4,0,6.2,2.8,6.2,6.2v19.9
		C272.4,257.4,269.7,260.2,266.2,260.2z"/>
	<path class="st4" d="M266.2,240.3c-12.2,0-23.7-5.3-31.7-14.5c-2.3-2.6-2-6.5,0.6-8.8c2.6-2.3,6.5-2,8.8,0.6
		c5.6,6.5,13.8,10.2,22.4,10.2c8.6,0,16.7-3.7,22.4-10.2c2.3-2.6,6.2-2.9,8.8-0.6c2.6,2.3,2.9,6.2,0.6,8.8
		C289.9,235,278.4,240.3,266.2,240.3z"/>
	<path class="st4" d="M266.2,240.3c-3.4,0-6.2-2.8-6.2-6.2v-27.6c0-3.4,2.8-6.2,6.2-6.2c3.4,0,6.2,2.8,6.2,6.2v27.6
		C272.4,237.5,269.7,240.3,266.2,240.3z"/>
	<path class="st4" d="M266.2,206.4c14.4,0,30.7-16.5,32.6-32.2c1.8-15.2-14.6-19.9-32.6-19.9s-34.4,4.7-32.6,19.9
		C235.5,189.9,251.9,206.4,266.2,206.4z"/>
	<g>
		<path class="st4" d="M65.1,206.9L65.1,206.9c-24.9-3-44.9-21.7-49.7-46.3l0,0C9.5,129.8,20,98.2,43.1,77l39.4-36.1
			c18.6-17,44-24.5,68.8-20.2l0,0c22.9,3.9,35.7,28.5,25.9,49.5l-46.9,100.5C118.7,195.7,92.4,210.2,65.1,206.9z"/>
		<path class="st5" d="M47.5,72.9L43.1,77C20,98.2,9.5,129.8,15.5,160.6l0,0c4.8,24.6,24.8,43.3,49.7,46.3l0,0
			c27.2,3.3,53.5-11.3,65.1-36.1l4.2-9.1C62.9,196.9,37.2,115.5,47.5,72.9z"/>
	</g>
	<g>
		<path class="st4" d="M445.7,215.7L445.7,215.7c25.2-0.1,47.4-16.5,55-40.5l0,0c9.5-30,2.7-62.9-17.9-86.7l-35.1-40.6
			c-16.6-19.2-41.1-29.6-66.4-28.2l0,0c-23.3,1.3-39,24.4-31.6,46.5L384.8,172C393.5,198.2,418.1,215.8,445.7,215.7z"/>
		<path class="st5" d="M483.1,201.7c-87.3-0.1-110.9-138.9-108.7-181C355,25.6,343,46.3,349.6,66.2L384.8,172
			c8.7,26.2,33.3,43.8,60.9,43.6l0,0C459.8,215.6,472.9,210.4,483.1,201.7z"/>
	</g>
	<circle class="st4" cx="191.3" cy="141" r="13.3"/>
	<circle class="st4" cx="338.6" cy="141" r="13.3"/>
</g>
</svg>
