<?xml version="1.0" encoding="utf-8"?>
<!-- Generator: Adobe Illustrator 22.0.1, SVG Export Plug-In . SVG Version: 6.00 Build 0)  -->
<svg version="1.1" id="Layer_1" xmlns="http://www.w3.org/2000/svg" xmlns:xlink="http://www.w3.org/1999/xlink" x="0px" y="0px"
	 viewBox="0 0 268.5 268.5" style="enable-background:new 0 0 268.5 268.5;" xml:space="preserve">
<style type="text/css">
	.st0{display:none;}
	.st1{fill:#D8D0D0;}
</style>
<g id="Layer_2_1_" class="st0">
</g>
<g id="Capa_1">
	<g id="Delete__x2F__Trash">
		<path class="st1" d="M63.1,250.3c0,0,4,18.2,24.6,18.2h93.1c20.6,0,24.6-18.2,24.6-18.2l18.4-178.7h-179L63.1,250.3z M170,98.4
			c0-4.9,4-8.9,8.9-8.9s8.9,4,8.9,8.9L179,232.7c0,4.9-4,8.9-8.9,8.9s-8.9-4-8.9-8.9L170,98.4z M125.3,98.4c0-4.9,4-8.9,8.9-8.9
			s8.9,4,8.9,8.9v134.2c0,4.9-4,8.9-8.9,8.9s-8.9-4-8.9-8.9C125.3,232.7,125.3,98.4,125.3,98.4z M89.5,89.5c4.9,0,8.9,4,8.9,8.9
			l8.9,134.2c0,4.9-4,8.9-8.9,8.9s-8.9-4-8.9-8.9l-9-134.2C80.5,93.5,84.6,89.5,89.5,89.5z M218.4,35.8H179V17.9
			C179,4.3,174.6,0,161.1,0h-53.7C95,0,89.5,6,89.5,17.9v17.9H50.1c-7.9,0-14.3,6-14.3,13.4s6.4,13.4,14.3,13.4h168.2
			c7.9,0,14.3-6,14.3-13.4C232.7,41.8,226.3,35.8,218.4,35.8z M161.1,35.8h-53.7V17.9h53.7V35.8L161.1,35.8z"/>
	</g>
</g>
</svg>
